Coordinates
version=1
nRows=9
nColumns=63
inDegrees=yes

Units are S.I. units (second, meters, Newtons, ...)
If the header above contains a line with 'inDegrees', this indicates whether rotational values are in degrees (yes) or radians (no).

endheader
time	pelvis_tilt	pelvis_list	pelvis_rotation	pelvis_tx	pelvis_ty	pelvis_tz	hip_flexion_r	hip_adduction_r	hip_rotation_r	knee_angle_r	knee_angle_r_beta	ankle_angle_r	subtalar_angle_r	mtp_angle_r	hip_flexion_l	hip_adduction_l	hip_rotation_l	knee_angle_l	knee_angle_l_beta	ankle_angle_l	subtalar_angle_l	mtp_angle_l	L5_S1_Flex_Ext	L5_S1_Lat_Bending	L5_S1_axial_rotation	L4_L5_Flex_Ext	L4_L5_Lat_Bending	L4_L5_axial_rotation	L3_L4_Flex_Ext	L3_L4_Lat_Bending	L3_L4_axial_rotation	L2_L3_Flex_Ext	L2_L3_Lat_Bending	L2_L3_axial_rotation	L1_L2_Flex_Ext	L1_L2_Lat_Bending	L1_L2_axial_rotation	L1_T12_Flex_Ext	L1_T12_Lat_Bending	L1_T12_axial_rotation	Abs_r3	Abs_r2	Abs_r1	Abs_t1	Abs_t2	neck_flexion	neck_bending	neck_rotation	arm_flex_r	arm_add_r	arm_rot_r	elbow_flex_r	pro_sup_r	wrist_flex_r	wrist_dev_r	arm_flex_l	arm_add_l	arm_rot_l	elbow_flex_l	pro_sup_l	wrist_flex_l	wrist_dev_l
0.000000	-1.929237	-4.311215	63.396157	0.316012	0.606867	0.619624	2.442592	0.639324	0.562837	10.022380	0.174924	36.787078	11.628576	0.000000	-3.284032	-1.725417	8.799057	1.700231	0.029675	30.448366	-13.245410	0.000000	-0.006925	-0.083111	0.513685	-0.012861	-0.110537	0.545791	-0.011377	-0.202076	0.545791	-0.007915	-0.202076	0.449475	-0.006431	-0.169480	0.417369	-0.003957	-0.128739	0.385264	-0.049466	-0.940166	2.856964	0.000000	0.000000	18.729354	3.730428	-7.737636	-9.567588	-11.811731	23.680267	91.338066	84.124183	-9.374232	7.899282	0.646041	-17.962944	32.919301	94.149014	88.482590	23.533801	26.269801
0.024390	-1.961620	-4.277112	62.655795	0.316458	0.607509	0.619995	2.465119	0.606938	1.245552	9.715410	0.169566	36.842621	11.793649	0.000000	-3.398174	-1.611706	8.127123	1.629001	0.028431	30.594712	-13.060472	0.000000	-0.002737	-0.082682	0.643512	-0.005083	-0.109968	0.683731	-0.004497	-0.201034	0.683731	-0.003128	-0.201034	0.563073	-0.002542	-0.168606	0.522853	-0.001564	-0.128075	0.482634	-0.019551	-0.935320	3.579019	0.000000	0.000000	18.241262	3.421115	-7.882015	-9.656395	-12.083923	23.935816	90.933589	85.676307	-10.979901	3.712978	-0.077612	-17.784781	31.802727	94.602035	88.835824	17.209754	23.470786
0.048780	-1.971248	-4.245629	62.150881	0.316726	0.608001	0.620227	2.461635	0.599139	1.802163	9.485695	0.165557	36.838868	11.782615	0.000000	-3.488372	-1.534784	7.593380	1.586417	0.027688	30.717065	-12.821182	0.000000	0.001383	-0.082392	0.731156	0.002569	-0.109581	0.776853	0.002273	-0.200327	0.776853	0.001581	-0.200327	0.639762	0.001284	-0.168013	0.594064	0.000790	-0.127625	0.548367	0.009880	-0.932032	4.066470	0.000000	0.000000	17.841776	3.195385	-7.982756	-9.696222	-12.362386	24.423454	90.452857	86.942875	-12.514686	-0.186518	-0.660302	-17.680780	31.081141	94.941830	89.084061	12.479950	21.356256
0.073171	-1.960329	-4.216377	61.858977	0.316835	0.608362	0.620320	2.435135	0.613667	2.245367	9.327203	0.162790	36.783470	11.612348	0.000000	-3.558096	-1.491125	7.188560	1.568393	0.027374	30.817343	-12.538606	0.000000	0.005321	-0.082054	0.780623	0.009882	-0.109131	0.829412	0.008742	-0.199505	0.829412	0.006082	-0.199505	0.683045	0.004941	-0.167324	0.634256	0.003041	-0.127101	0.585467	0.038010	-0.928208	4.341590	0.000000	0.000000	17.523573	3.042986	-8.045800	-9.693973	-12.642454	25.095001	89.922756	87.948725	-13.952199	-3.754792	-1.117954	-17.637182	30.690821	95.180356	89.237364	9.180924	19.856505
0.097561	-1.931072	-4.188967	61.757642	0.316804	0.608608	0.620280	2.388615	0.648267	2.587858	9.233901	0.161162	36.684076	11.299721	0.000000	-3.610811	-1.477202	6.903398	1.570843	0.027416	30.897461	-12.223810	0.000000	0.008963	-0.081484	0.795917	0.016645	-0.108373	0.845662	0.014725	-0.198119	0.845662	0.010244	-0.198119	0.696427	0.008323	-0.166161	0.646683	0.005121	-0.126218	0.596938	0.064020	-0.921758	4.426651	0.000000	0.000000	17.279326	2.953664	-8.077091	-9.656554	-12.919455	25.902279	89.370172	88.718695	-15.266052	-6.947431	-1.466496	-17.640231	30.568044	95.329565	89.305795	7.149208	18.901829
0.121951	-1.885683	-4.163010	61.824435	0.316652	0.608757	0.620107	2.325072	0.700681	2.842332	9.199756	0.160566	36.548337	10.861608	0.000000	-3.649985	-1.489489	6.728626	1.589680	0.027745	30.959337	-11.887861	0.000000	0.012193	-0.080496	0.781043	0.022644	-0.107060	0.829858	0.020032	-0.195719	0.829858	0.013936	-0.195719	0.683413	0.011323	-0.164148	0.634597	0.006967	-0.124689	0.585782	0.087095	-0.910590	4.343926	0.000000	0.000000	17.101711	2.917165	-8.082569	-9.590871	-13.188722	26.797110	88.821990	89.277623	-16.429857	-9.720021	-1.721852	-17.676168	30.649085	95.401413	89.299417	6.221336	18.422523
0.146341	-1.826371	-4.138117	62.036918	0.316399	0.608827	0.619805	2.247501	0.768651	3.021483	9.218734	0.160897	36.383904	10.314883	0.000000	-3.679086	-1.524461	6.654977	1.620818	0.028289	31.004888	-11.541824	0.000000	0.014898	-0.078907	0.740005	0.027667	-0.104946	0.786256	0.024476	-0.191854	0.786256	0.017027	-0.191854	0.647505	0.013834	-0.160907	0.601254	0.008513	-0.122227	0.555004	0.106416	-0.892610	4.115688	0.000000	0.000000	16.983404	2.923236	-8.068179	-9.503828	-13.445585	27.731314	88.305095	89.650348	-17.417226	-12.028150	-1.899949	-17.731238	30.870222	95.407854	89.228293	6.233841	18.348879
0.170732	-1.755344	-4.113898	62.372650	0.316063	0.608835	0.619376	2.158898	0.849920	3.138007	9.284804	0.162050	36.198427	9.676418	0.000000	-3.701581	-1.578591	6.673185	1.660170	0.028975	31.036030	-11.196767	0.000000	0.016963	-0.076531	0.676809	0.031503	-0.101786	0.719109	0.027869	-0.186076	0.719109	0.019387	-0.186076	0.592208	0.015752	-0.156061	0.549907	0.009693	-0.118546	0.507607	0.121168	-0.865728	3.764208	0.000000	0.000000	16.917080	2.961623	-8.039861	-9.402332	-13.685376	28.656715	87.846373	89.861706	-18.201772	-13.827402	-2.016714	-17.791682	31.167731	95.360841	89.102486	7.023257	18.611194
0.195122	-1.674808	-4.089965	62.809192	0.315664	0.608798	0.618824	2.062260	0.942230	3.204599	9.391931	0.163920	35.999556	8.963088	0.000000	-3.720938	-1.648353	6.773984	1.703651	0.029734	31.054680	-10.863755	0.000000	0.018274	-0.073182	0.595458	0.033937	-0.097332	0.632674	0.030023	-0.177935	0.632674	0.020886	-0.177935	0.521026	0.016970	-0.149233	0.483810	0.010442	-0.113359	0.446594	0.130532	-0.827852	3.311760	0.000000	0.000000	16.895413	3.022072	-8.003559	-9.293287	-13.903425	29.525132	87.472708	89.936537	-18.757106	-15.073365	-2.088071	-17.843743	31.477889	95.272331	88.932057	8.426118	19.139762
